# xmcd
#
# Track frame offsets: 
#        150
#        15320
#        28489
#        41766
#        55075
#        67113
#        80316
#        93173
#        105806
#
# Disc length: 1693 seconds
#
# Revision: 0
# Processed by: cddbd v1.5.2PL0 Copyright (c) Steve Scherf et al.
# Submitted via: ExactAudioCopyFreeDBPlugin 1.0
#
DISCID=65069b09
DTITLE=Marbled Eye - Leisure
DYEAR=2018
DGENRE=Garage Punk
TTITLE0=Laughing Sound
TTITLE1=Open Hand
TTITLE2=Leisure
TTITLE3=Isle
TTITLE4=Curtain
TTITLE5=New Crease
TTITLE6=Idle Hour
TTITLE7=Vanity
TTITLE8=Foundation
EXTD=
EXTT0=
EXTT1=
EXTT2=
EXTT3=
EXTT4=
EXTT5=
EXTT6=
EXTT7=
EXTT8=
PLAYORDER=
